<svg width="16" height="14" viewBox="0 0 16 14" fill="none" xmlns="http://www.w3.org/2000/svg">
<path d="M10.7812 0.221875L14.775 4.2625C16.4125 5.91875 16.4125 8.58125 14.775 10.2375L11.275 13.7781C10.9844 14.0719 10.5094 14.075 10.2156 13.7844C9.92188 13.4938 9.91875 13.0188 10.2094 12.725L13.7063 9.18437C14.7656 8.1125 14.7656 6.39062 13.7063 5.31875L9.71562 1.27813C9.425 0.984375 9.42813 0.509375 9.72188 0.21875C10.0156 -0.071875 10.4906 -0.06875 10.7812 0.225V0.221875ZM0 6.17188V1.5C0 0.671875 0.671875 0 1.5 0H6.17188C6.70312 0 7.2125 0.209375 7.5875 0.584375L12.8375 5.83437C13.6187 6.61562 13.6187 7.88125 12.8375 8.6625L8.66562 12.8344C7.88437 13.6156 6.61875 13.6156 5.8375 12.8344L0.5875 7.58438C0.209375 7.20938 0 6.70312 0 6.17188ZM4.5 3.5C4.5 3.23478 4.39464 2.98043 4.20711 2.79289C4.01957 2.60536 3.76522 2.5 3.5 2.5C3.23478 2.5 2.98043 2.60536 2.79289 2.79289C2.60536 2.98043 2.5 3.23478 2.5 3.5C2.5 3.76522 2.60536 4.01957 2.79289 4.20711C2.98043 4.39464 3.23478 4.5 3.5 4.5C3.76522 4.5 4.01957 4.39464 4.20711 4.20711C4.39464 4.01957 4.5 3.76522 4.5 3.5Z" fill="black"/>
</svg>
